<?xml version="1.0" encoding="UTF-8"?>
<svg id="Layer_2" data-name="Layer 2" xmlns="http://www.w3.org/2000/svg" xmlns:xlink="http://www.w3.org/1999/xlink" viewBox="0 0 310.42 221.36">
  <defs>
    <style>
      .cls-1 {
        fill: url(#linear-gradient-12);
      }

      .cls-1, .cls-2, .cls-3, .cls-4, .cls-5, .cls-6, .cls-7, .cls-8, .cls-9, .cls-10, .cls-11, .cls-12, .cls-13 {
        stroke-width: 0px;
      }

      .cls-2 {
        fill: url(#linear-gradient);
      }

      .cls-3 {
        fill: url(#linear-gradient-6);
      }

      .cls-4 {
        fill: url(#linear-gradient-11);
      }

      .cls-5 {
        fill: url(#linear-gradient-5);
      }

      .cls-6 {
        fill: url(#linear-gradient-13);
      }

      .cls-7 {
        fill: url(#linear-gradient-2);
      }

      .cls-8 {
        fill: url(#linear-gradient-7);
      }

      .cls-9 {
        fill: url(#linear-gradient-3);
      }

      .cls-10 {
        fill: url(#linear-gradient-9);
      }

      .cls-11 {
        fill: url(#linear-gradient-8);
      }

      .cls-12 {
        fill: url(#linear-gradient-10);
      }

      .cls-13 {
        fill: url(#linear-gradient-4);
      }
    </style>
    <linearGradient id="linear-gradient" x1="89.81" y1="100.87" x2="227.77" y2="100.87" gradientUnits="userSpaceOnUse">
      <stop offset="0" stop-color="#1b5eab"/>
      <stop offset="1" stop-color="#2f78bc"/>
    </linearGradient>
    <linearGradient id="linear-gradient-2" x1="115.39" y1="117.69" x2="224.75" y2="117.69" xlink:href="#linear-gradient"/>
    <linearGradient id="linear-gradient-3" x1="168.82" y1="103.67" x2="278.19" y2="103.67" xlink:href="#linear-gradient"/>
    <linearGradient id="linear-gradient-4" x1="157.73" y1="287.06" x2="207.83" y2="69.46" gradientUnits="userSpaceOnUse">
      <stop offset="0" stop-color="#00994d"/>
      <stop offset="1" stop-color="#41b75d"/>
    </linearGradient>
    <linearGradient id="linear-gradient-5" x1="42.28" y1="110.68" x2="310.42" y2="110.68" xlink:href="#linear-gradient"/>
    <linearGradient id="linear-gradient-6" x1="201.85" y1="16.13" x2="205.66" y2="16.13" xlink:href="#linear-gradient"/>
    <linearGradient id="linear-gradient-7" x1="218.8" y1="15.17" x2="227.77" y2="15.17" xlink:href="#linear-gradient"/>
    <linearGradient id="linear-gradient-8" x1="32.19" y1="178.56" x2="110.77" y2="178.56" xlink:href="#linear-gradient"/>
    <linearGradient id="linear-gradient-9" x1="0" y1="123.67" x2="101.36" y2="123.67" xlink:href="#linear-gradient"/>
    <linearGradient id="linear-gradient-10" x1="69.24" y1="36.89" x2="177.9" y2="36.89" xlink:href="#linear-gradient"/>
    <linearGradient id="linear-gradient-11" x1="37.38" y1="93.24" x2="113.76" y2="93.24" xlink:href="#linear-gradient"/>
    <linearGradient id="linear-gradient-12" x1="20.1" y1="151.32" x2="101.73" y2="151.32" xlink:href="#linear-gradient"/>
    <linearGradient id="linear-gradient-13" x1="74" y1="65.8" x2="133.75" y2="65.8" xlink:href="#linear-gradient"/>
  </defs>
  <g id="Layer_1-2" data-name="Layer 1">
    <g>
      <path class="cls-2" d="m108.18,170.35h-18.37c.27.65.55,1.31.83,1.96,2.28,5.18,5.03,10.01,8.21,14.46h22.27c-5.05-4.68-9.41-10.16-12.95-16.42ZM218.8,14.96c3,0,5.96.14,8.87.42l.1-.42h-8.97Z"/>
      <path class="cls-7" d="m224.75,177.1c-36.39,20.63-76.31,15.8-96.47-9.68-2.97-3.76-5.51-7.96-7.55-12.59-15.86-36.09,4.77-84.86,46.12-109.44-38.87,23.18-57.51,70.77-41.65,106.84,15.86,36.07,60.25,47.07,99.54,24.86Z"/>
      <path class="cls-9" d="m226.72,175.96c38.86-23.18,57.51-70.77,41.64-106.84-15.86-36.07-60.25-47.07-99.54-24.86,15.36-8.71,31.34-12.88,46.2-12.88,25.55,0,47.78,12.33,57.81,35.14,15.87,36.09-4.77,84.86-46.12,109.44Z"/>
      <path class="cls-13" d="m155.72,116h13.91c19.89,0,34.04-6.97,39.96-21.49,5.59-13.73-3.73-18.63-23.62-18.63h-13.91l5.62-13.8h75.66l-3.83,9.41h-27.8c7.61,4.46,9.84,12.66,5.67,22.89-9.92,24.36-34.2,35.3-60.37,35.3h-16.86l5.56-13.67Zm10.76-26.42l14.17-.74h61.79l-3.83,9.41h-75.66l3.53-8.66Zm-1.9,37.06l15.75-8.44,23.38,51.8h-20.12l-19.02-43.36Z"/>
      <path class="cls-5" d="m300.7,131.45c-12.14,28.76-34.2,53.75-62.14,70.35l-.2.12-2.54,1.47c-20.74,11.76-43.05,17.98-64.51,17.98-30.77,0-56.81-12.67-72.47-34.59h22.27c25.83,23.95,69.4,26.78,109.42,4.08l2.38-1.38c49.91-29.67,74.82-88.53,55.67-132.1-10.93-24.86-33.86-39.41-60.91-42l.1-.42h-8.97c-4.31,0-8.7.29-13.14.88-1.27.17-2.54.36-3.81.58H42.28L46.07,0h176.18c8.69,0,16.99,1.01,24.79,2.95h0c25.46,6.34,45.55,22.59,55.88,46.1,10.71,24.35,9.91,53.61-2.24,82.4Z"/>
      <path class="cls-3" d="m205.66,15.84l-1.27.58h-2.54c1.27-.22,2.54-.41,3.81-.58Z"/>
      <path class="cls-8" d="m227.77,14.96l-.1.42c-2.91-.28-5.87-.42-8.87-.42h8.97Z"/>
      <path class="cls-11" d="m110.77,186.77H32.19l4.46-16.42h58.87c4.16,6.26,9.3,11.74,15.24,16.42Z"/>
      <path class="cls-10" d="m101.36,115.47c-1.34,5.47-2.21,10.97-2.6,16.42H0l4.47-16.42h96.89Z"/>
      <path class="cls-12" d="m177.9,28.68c-5.49,2.14-10.96,4.74-16.36,7.81l-1.5.87-.87.5c-.38.23-.76.46-1.14.68-3.37,2.05-6.63,4.23-9.77,6.55h-79.02l4.46-16.42h104.2Z"/>
      <path class="cls-4" d="m113.76,85.03c-3.1,5.34-5.76,10.84-7.95,16.42H37.38l4.46-16.42h71.92Z"/>
      <path class="cls-1" d="m101.73,159.52H20.1l4.46-16.42h74.22c.42,5.59,1.39,11.09,2.95,16.42Z"/>
      <path class="cls-6" d="m133.75,57.59c-5.54,5.11-10.57,10.62-15.05,16.42h-44.7l4.47-16.42h55.28Z"/>
    </g>
  </g>
</svg>