<?xml version="1.0" encoding="UTF-8"?>
<svg id="Layer_2" data-name="Layer 2" xmlns="http://www.w3.org/2000/svg" xmlns:xlink="http://www.w3.org/1999/xlink" viewBox="0 0 331.77 68.95">
  <defs>
    <style>
      .cls-1 {
        fill: url(#linear-gradient-12);
      }

      .cls-1, .cls-2, .cls-3, .cls-4, .cls-5, .cls-6, .cls-7, .cls-8, .cls-9, .cls-10, .cls-11, .cls-12, .cls-13, .cls-14, .cls-15, .cls-16, .cls-17, .cls-18, .cls-19, .cls-20, .cls-21, .cls-22, .cls-23, .cls-24, .cls-25, .cls-26, .cls-27, .cls-28 {
        stroke-width: 0px;
      }

      .cls-2 {
        fill: url(#linear-gradient-17);
      }

      .cls-3 {
        fill: url(#linear-gradient-19);
      }

      .cls-4 {
        fill: url(#linear-gradient);
      }

      .cls-5 {
        fill: url(#linear-gradient-21);
      }

      .cls-6 {
        fill: url(#linear-gradient-6);
      }

      .cls-7 {
        fill: url(#linear-gradient-15);
      }

      .cls-8 {
        fill: url(#linear-gradient-11);
      }

      .cls-9 {
        fill: url(#linear-gradient-5);
      }

      .cls-10 {
        fill: url(#linear-gradient-13);
      }

      .cls-11 {
        fill: url(#linear-gradient-23);
      }

      .cls-12 {
        fill: url(#linear-gradient-25);
      }

      .cls-13 {
        fill: url(#linear-gradient-16);
      }

      .cls-14 {
        fill: url(#linear-gradient-22);
      }

      .cls-15 {
        fill: url(#linear-gradient-20);
      }

      .cls-16 {
        fill: url(#linear-gradient-14);
      }

      .cls-17 {
        fill: url(#linear-gradient-2);
      }

      .cls-18 {
        fill: url(#linear-gradient-7);
      }

      .cls-19 {
        fill: url(#linear-gradient-3);
      }

      .cls-20 {
        fill: url(#linear-gradient-9);
      }

      .cls-21 {
        fill: url(#linear-gradient-27);
      }

      .cls-22 {
        fill: url(#linear-gradient-8);
      }

      .cls-23 {
        fill: url(#linear-gradient-24);
      }

      .cls-24 {
        fill: url(#linear-gradient-26);
      }

      .cls-25 {
        fill: url(#linear-gradient-18);
      }

      .cls-26 {
        fill: url(#linear-gradient-10);
      }

      .cls-27 {
        fill: url(#linear-gradient-4);
      }

      .cls-28 {
        fill: #39b44a;
      }
    </style>
    <linearGradient id="linear-gradient" x1="27.97" y1="31.42" x2="70.94" y2="31.42" gradientUnits="userSpaceOnUse">
      <stop offset="0" stop-color="#1b5eab"/>
      <stop offset="1" stop-color="#2f78bc"/>
    </linearGradient>
    <linearGradient id="linear-gradient-2" x1="35.94" y1="36.66" x2="70" y2="36.66" xlink:href="#linear-gradient"/>
    <linearGradient id="linear-gradient-3" x1="52.58" y1="32.29" x2="86.65" y2="32.29" xlink:href="#linear-gradient"/>
    <linearGradient id="linear-gradient-4" x1="49.13" y1="89.41" x2="64.73" y2="21.63" gradientUnits="userSpaceOnUse">
      <stop offset="0" stop-color="#00994d"/>
      <stop offset="1" stop-color="#41b75d"/>
    </linearGradient>
    <linearGradient id="linear-gradient-5" x1="13.17" y1="34.47" x2="96.69" y2="34.47" xlink:href="#linear-gradient"/>
    <linearGradient id="linear-gradient-6" x1="62.87" y1="5.02" x2="64.06" y2="5.02" xlink:href="#linear-gradient"/>
    <linearGradient id="linear-gradient-7" x1="68.15" y1="4.73" x2="70.94" y2="4.73" xlink:href="#linear-gradient"/>
    <linearGradient id="linear-gradient-8" x1="10.03" y1="55.61" x2="34.5" y2="55.61" xlink:href="#linear-gradient"/>
    <linearGradient id="linear-gradient-9" x1="0" y1="38.52" x2="31.57" y2="38.52" xlink:href="#linear-gradient"/>
    <linearGradient id="linear-gradient-10" x1="21.57" y1="11.49" x2="55.41" y2="11.49" xlink:href="#linear-gradient"/>
    <linearGradient id="linear-gradient-11" x1="11.64" y1="29.04" x2="35.43" y2="29.04" xlink:href="#linear-gradient"/>
    <linearGradient id="linear-gradient-12" x1="6.26" y1="47.13" x2="31.69" y2="47.13" xlink:href="#linear-gradient"/>
    <linearGradient id="linear-gradient-13" x1="23.05" y1="20.49" x2="41.66" y2="20.49" xlink:href="#linear-gradient"/>
    <linearGradient id="linear-gradient-14" x1="101.5" y1="50.91" x2="175.38" y2="50.91" gradientUnits="userSpaceOnUse">
      <stop offset="0" stop-color="#41b75d"/>
      <stop offset="1" stop-color="#00994d"/>
    </linearGradient>
    <linearGradient id="linear-gradient-15" x1="188.01" x2="324.05" xlink:href="#linear-gradient-14"/>
    <linearGradient id="linear-gradient-16" x1="104.16" y1="30.28" x2="130.15" y2="30.28" gradientUnits="userSpaceOnUse">
      <stop offset="0" stop-color="#1b5eab"/>
      <stop offset="1" stop-color="#2f79bd"/>
    </linearGradient>
    <linearGradient id="linear-gradient-17" x1="127.21" y1="35.02" x2="148.39" y2="35.02" gradientUnits="userSpaceOnUse">
      <stop offset="0" stop-color="#1b5eab"/>
      <stop offset="1" stop-color="#2f78bc"/>
    </linearGradient>
    <linearGradient id="linear-gradient-18" x1="149.56" y1="34.68" x2="168.83" y2="34.68" xlink:href="#linear-gradient-17"/>
    <linearGradient id="linear-gradient-19" x1="166.85" y1="30.28" x2="179.28" y2="30.28" xlink:href="#linear-gradient-17"/>
    <linearGradient id="linear-gradient-20" x1="176.84" y1="39.55" x2="202.48" y2="39.55" xlink:href="#linear-gradient-17"/>
    <linearGradient id="linear-gradient-21" x1="176.84" y1="39.55" x2="202.48" y2="39.55" xlink:href="#linear-gradient-17"/>
    <linearGradient id="linear-gradient-22" x1="210.87" y1="30.28" x2="240.79" y2="30.28" xlink:href="#linear-gradient-17"/>
    <linearGradient id="linear-gradient-23" x1="239.03" y1="34.68" x2="258.3" y2="34.68" xlink:href="#linear-gradient-17"/>
    <linearGradient id="linear-gradient-24" x1="255.71" x2="277.44" xlink:href="#linear-gradient-17"/>
    <linearGradient id="linear-gradient-25" x1="279.24" y1="30.61" x2="305.8" y2="30.61" xlink:href="#linear-gradient-17"/>
    <linearGradient id="linear-gradient-26" x1="303.9" y1="30.11" x2="316.49" y2="30.11" xlink:href="#linear-gradient-17"/>
    <linearGradient id="linear-gradient-27" x1="316.54" y1="32.21" x2="331.77" y2="32.21" xlink:href="#linear-gradient-17"/>
  </defs>
  <g id="Layer_1-2" data-name="Layer 1">
    <g>
      <path class="cls-4" d="m33.69,53.06h-5.72c.08.2.17.41.26.61.71,1.61,1.57,3.12,2.56,4.5h6.94c-1.57-1.46-2.93-3.16-4.03-5.11ZM68.15,4.66c.93,0,1.86.04,2.76.13l.03-.13h-2.79Z"/>
      <path class="cls-17" d="m70,55.16c-11.33,6.43-23.77,4.92-30.05-3.01-.93-1.17-1.72-2.48-2.35-3.92-4.94-11.24,1.49-26.43,14.37-34.09-12.11,7.22-17.91,22.04-12.97,33.28,4.94,11.23,18.77,14.66,31,7.74Z"/>
      <path class="cls-19" d="m70.62,54.81c12.1-7.22,17.91-22.04,12.97-33.28-4.94-11.24-18.77-14.66-31-7.74,4.78-2.71,9.76-4.01,14.39-4.01,7.96,0,14.88,3.84,18.01,10.95,4.94,11.24-1.49,26.43-14.36,34.09Z"/>
      <path class="cls-27" d="m48.5,36.13h4.33c6.19,0,10.6-2.17,12.45-6.69,1.74-4.28-1.16-5.8-7.36-5.8h-4.33l1.75-4.3h23.56l-1.19,2.93h-8.66c2.37,1.39,3.06,3.94,1.77,7.13-3.09,7.59-10.65,10.99-18.8,10.99h-5.25l1.73-4.26Zm3.35-8.23l4.41-.23h19.24l-1.19,2.93h-23.56l1.1-2.7Zm-.59,11.54l4.91-2.63,7.28,16.13h-6.27l-5.92-13.51Z"/>
      <path class="cls-9" d="m93.66,40.94c-3.78,8.96-10.65,16.74-19.35,21.91l-.06.04-.79.46c-6.46,3.66-13.41,5.6-20.09,5.6-9.58,0-17.69-3.95-22.57-10.77h6.94c8.05,7.46,21.61,8.34,34.08,1.27l.74-.43c15.54-9.24,23.3-27.57,17.34-41.14-3.4-7.74-10.55-12.27-18.97-13.08l.03-.13h-2.79c-1.34,0-2.71.09-4.09.27-.39.05-.79.11-1.19.18H13.17l1.18-5.11h54.87c2.71,0,5.29.31,7.72.92h0c7.93,1.97,14.19,7.04,17.41,14.36,3.33,7.58,3.09,16.7-.7,25.66Z"/>
      <path class="cls-6" d="m64.06,4.93l-.4.18h-.79c.4-.07.79-.13,1.19-.18Z"/>
      <path class="cls-18" d="m70.94,4.66l-.03.13c-.91-.09-1.83-.13-2.76-.13h2.79Z"/>
      <path class="cls-22" d="m34.5,58.17H10.03l1.39-5.11h18.34c1.29,1.95,2.9,3.66,4.75,5.11Z"/>
      <path class="cls-20" d="m31.57,35.96c-.42,1.7-.69,3.42-.81,5.11H0l1.39-5.11h30.18Z"/>
      <path class="cls-26" d="m55.41,8.93c-1.71.67-3.41,1.48-5.1,2.43l-.47.27-.27.16c-.12.07-.24.14-.36.21-1.05.64-2.06,1.32-3.04,2.04h-24.61l1.39-5.11h32.45Z"/>
      <path class="cls-8" d="m35.43,26.48c-.97,1.66-1.79,3.38-2.48,5.11H11.64l1.39-5.11h22.4Z"/>
      <path class="cls-1" d="m31.69,49.69H6.26l1.39-5.11h23.12c.13,1.74.43,3.45.92,5.11Z"/>
      <path class="cls-10" d="m41.66,17.94c-1.73,1.59-3.29,3.31-4.69,5.11h-13.92l1.39-5.11h17.22Z"/>
    </g>
    <g>
      <polygon class="cls-16" points="175.38 49.96 172.62 51.85 101.5 51.85 102.6 49.96 175.38 49.96"/>
      <polygon class="cls-28" points="186.48 48.78 183.65 53.03 177.75 53.03 180.67 48.78 186.48 48.78"/>
      <path class="cls-7" d="m324.05,51.91h-136.04l2.83-2h129.25c1.08.76,2.41,1.43,3.95,2Z"/>
      <g>
        <path class="cls-13" d="m128.91,20.63l1.24-5.37h-19.05l-6.94,30.05h19.05l1.24-5.37h-13.39l1.61-6.97h12.04l1.24-5.37h-12.04l1.61-6.97h13.39Z"/>
        <path class="cls-2" d="m147.07,26.31c-1.33-1.5-3.59-2.25-6.78-2.25-3.78,0-7.07,1.37-9.89,4.11l3.36,2.73c1.68-1.59,3.48-2.39,5.38-2.39,1.29,0,2.28.36,2.98,1.07.7.71.93,1.62.68,2.71l-.15.63c-.51-.22-1.17-.44-1.99-.65-.82-.21-1.9-.32-3.24-.32-1.2,0-2.35.16-3.45.48-1.1.32-2.09.79-2.99,1.41-.9.62-1.65,1.35-2.27,2.2-.62.85-1.05,1.81-1.29,2.88-.24,1.03-.26,1.99-.07,2.85.19.87.57,1.61,1.12,2.22.56.62,1.26,1.1,2.12,1.45.86.35,1.82.52,2.88.52,1.43,0,2.66-.28,3.7-.84,1.04-.56,1.97-1.23,2.79-2.01h.34l-.5,2.18h5.41l2.85-12.34c.68-2.94.35-5.15-.98-6.65Zm-6.12,12.42c-.37.57-.82,1.08-1.36,1.51-.53.43-1.14.78-1.82,1.05-.68.27-1.38.4-2.11.4-.9,0-1.63-.25-2.2-.76-.57-.5-.76-1.18-.56-2.01.19-.84.71-1.55,1.56-2.12.85-.57,1.93-.86,3.24-.86.81,0,1.54.09,2.18.27.64.18,1.25.43,1.82.74-.14.62-.4,1.21-.77,1.78Z"/>
        <path class="cls-25" d="m167.65,24.3c-.48-.16-1.09-.23-1.81-.23-.59,0-1.2.1-1.85.29-.65.19-1.26.44-1.85.76-.59.31-1.14.68-1.66,1.1-.52.42-.96.88-1.33,1.39h-.34l.66-2.85h-5.16l-4.75,20.56h5.5l2.34-10.12c.19-.84.49-1.62.9-2.34s.88-1.34,1.44-1.88c.56-.53,1.18-.95,1.86-1.24.68-.3,1.4-.44,2.16-.44.59,0,1.07.05,1.46.15.38.1.72.23,1.02.4l2.6-4.91c-.31-.25-.7-.45-1.18-.61Z"/>
        <path class="cls-3" d="m173.79,15.25l-6.94,30.05h5.5l6.94-30.05h-5.5Z"/>
        <polygon class="cls-15" points="202.48 24.74 186.48 48.78 183.65 53.03 182.76 54.36 176.84 54.36 177.75 53.03 180.67 48.78 183.74 44.29 179.61 24.74 185.86 24.74 188.19 37.2 188.48 37.2 196.36 24.74 202.48 24.74"/>
        <path class="cls-5" d="m196.36,24.74l-7.87,12.46h-.29l-2.33-12.46h-6.25l4.13,19.55-3.07,4.49-2.92,4.26-.91,1.33h5.92l.89-1.33,2.83-4.26,16-24.04h-6.13Z"/>
        <path class="cls-14" d="m229.42,39.57c-1.46.69-3.03,1.03-4.71,1.03-1.4,0-2.66-.24-3.77-.74-1.12-.49-2.03-1.18-2.73-2.08-.7-.9-1.17-1.98-1.41-3.25-.24-1.27-.18-2.69.19-4.26.36-1.57.96-2.99,1.78-4.26.82-1.27,1.79-2.36,2.91-3.25,1.12-.9,2.34-1.59,3.69-2.08,1.34-.49,2.71-.74,4.11-.74,1.6,0,2.9.31,3.92.92,1.02.62,1.86,1.44,2.51,2.48l4.88-3.86c-1.06-1.59-2.41-2.81-4.05-3.65-1.64-.84-3.66-1.26-6.07-1.26-2.24,0-4.41.41-6.51,1.22-2.1.81-4.02,1.92-5.74,3.32-1.72,1.4-3.21,3.06-4.46,4.97-1.25,1.92-2.14,3.98-2.65,6.19-.51,2.21-.58,4.27-.21,6.19.37,1.92,1.09,3.57,2.17,4.97,1.08,1.4,2.48,2.5,4.21,3.32,1.73.81,3.71,1.22,5.95,1.22,2.49,0,4.85-.47,7.08-1.41,2.23-.94,4.29-2.3,6.19-4.09l-3.15-3.82c-1.3,1.26-2.68,2.23-4.14,2.92Z"/>
        <path class="cls-11" d="m257.11,24.3c-.48-.16-1.09-.23-1.81-.23-.59,0-1.2.1-1.85.29-.65.19-1.26.44-1.85.76-.59.31-1.14.68-1.66,1.1-.52.42-.96.88-1.33,1.39h-.34l.66-2.85h-5.16l-4.75,20.56h5.5l2.34-10.12c.19-.84.49-1.62.9-2.34.4-.72.88-1.34,1.44-1.88.56-.53,1.18-.95,1.86-1.24.68-.3,1.4-.44,2.16-.44.59,0,1.07.05,1.46.15.38.1.72.23,1.02.4l2.6-4.91c-.31-.25-.7-.45-1.18-.61Z"/>
        <path class="cls-23" d="m277.38,30.57c-.14-1.31-.54-2.46-1.18-3.42-.64-.96-1.55-1.72-2.71-2.27-1.16-.54-2.57-.82-4.22-.82s-3.07.29-4.5.88c-1.44.59-2.75,1.38-3.93,2.37-1.18.99-2.19,2.15-3.03,3.48-.84,1.33-1.43,2.73-1.77,4.22-.37,1.6-.43,3.06-.19,4.39s.73,2.48,1.49,3.46c.75.98,1.73,1.74,2.93,2.29,1.2.55,2.59.82,4.15.82,2.32,0,4.41-.52,6.25-1.55,1.85-1.03,3.44-2.39,4.78-4.07l-4.05-2.27c-.68.87-1.49,1.59-2.45,2.16-.96.57-2.07.86-3.33.86-.64,0-1.25-.09-1.83-.27-.57-.18-1.07-.48-1.5-.88-.42-.41-.74-.91-.95-1.51-.21-.6-.28-1.32-.19-2.16h15.48c.04-.17.09-.32.15-.46.03-.14.08-.29.15-.46.03-.14.07-.31.12-.5.35-1.54.46-2.97.32-4.28Zm-5.08,1.8h-9.94c.64-1.2,1.49-2.14,2.54-2.81,1.05-.67,2.16-1.01,3.34-1.01.84,0,1.53.13,2.07.38.54.25.97.57,1.29.97.31.39.53.81.63,1.26.11.45.13.85.08,1.22Z"/>
        <path class="cls-12" d="m300.3,15.25l-2.08,9.02-.34,2.94h-.34c-.3-.87-.92-1.61-1.84-2.22-.92-.61-2.17-.92-3.73-.92-1.32,0-2.63.27-3.94.82-1.32.55-2.54,1.3-3.67,2.27-1.13.96-2.12,2.12-2.96,3.46-.84,1.34-1.45,2.81-1.81,4.41-.37,1.6-.44,3.06-.22,4.41.22,1.34.68,2.5,1.36,3.46.69.97,1.56,1.72,2.62,2.27,1.06.55,2.25.82,3.57.82,1.57,0,2.95-.31,4.16-.92,1.2-.61,2.16-1.36,2.86-2.22h.34l-.57,2.48h5.16l6.94-30.05h-5.5Zm-4.23,19.76c-.21.92-.56,1.75-1.03,2.48-.48.73-1.02,1.34-1.64,1.85-.62.5-1.29.89-2.01,1.15-.72.27-1.44.4-2.17.4s-1.39-.14-1.98-.42c-.59-.28-1.08-.67-1.47-1.18-.39-.5-.65-1.12-.79-1.85-.14-.73-.11-1.54.1-2.43.21-.9.55-1.71,1.02-2.43.48-.73,1.02-1.34,1.64-1.85.62-.5,1.29-.9,2.01-1.18.72-.28,1.45-.42,2.17-.42s1.39.13,1.98.4c.6.27,1.09.65,1.47,1.15.39.5.65,1.12.79,1.85.14.73.1,1.55-.11,2.48Z"/>
        <path class="cls-24" d="m308.65,24.74l-4.75,20.56h5.5l4.75-20.56h-5.5Zm7.27-8.79c-.54-.69-1.3-1.03-2.28-1.03-.48,0-.95.09-1.43.27-.48.18-.91.43-1.31.76-.4.32-.73.69-1.01,1.11-.28.42-.48.88-.59,1.39-.12.5-.13.96-.05,1.38.08.42.25.79.5,1.11.25.32.57.57.96.76.39.18.83.27,1.3.27.98,0,1.9-.34,2.75-1.03.86-.68,1.4-1.52,1.63-2.5.23-.98.07-1.81-.47-2.5Z"/>
        <path class="cls-21" d="m325.65,29.44h5.04l1.09-4.7h-5.04l1.45-6.29h-5.5l-1.45,6.29h-3.61l-1.08,4.7h3.61l-2.13,9.21c-.55,2.37-.31,4.2.71,5.48.43.57,1.02,1.02,1.77,1.35.75.33,1.64.49,2.68.49.9,0,1.73-.08,2.51-.23.78-.15,1.52-.38,2.24-.69l-.44-4.83c-.29.17-.59.3-.89.4-.3.1-.69.15-1.17.15-.73,0-1.23-.23-1.52-.69-.21-.29-.32-.64-.32-1.06,0-.42.05-.87.17-1.36l1.9-8.22Z"/>
      </g>
    </g>
  </g>
</svg>